<svg xmlns="http://www.w3.org/2000/svg" xmlns:xlink="http://www.w3.org/1999/xlink" viewBox="0 0 500 500"><defs><clipPath id="freepik--clip-path--inject-3"><path d="M246.14,248.54s-8.78,2.93-12.91,2.93-8.72-1.64-12.85,1.63-6.27,9.9-6.95,17.14-2.33,17.1-3.7,20-8,13.89-8.53,16.64-5.57,19.68-6.26,21.23-9.12,1.89-9.12,1.89-.18,4.82.86,7.23l1,2.42a22.1,22.1,0,0,0,9.13-2.76c4.47-2.58,7.75-11.71,9.12-14.64s9.1-19.1,12.38-24.61,6.11-19.17,6.11-19.17-.35,6.54,2.75,10.68,2.93,8.95,2.58,12.05-3.27,4.82-5.16,5.86,1.55,2.58,1.55,2.58-3.45,0-3.45,1.2,2.59,1.9,9,5.86,17.56,3.27,24.62.69,10.16-3.62,10.85-5.17a1.41,1.41,0,0,0-.69-2.06s2.07,0,1.21-2.42-4.31-4-4.65-4.64-2.58-7.58-.17-10.34,5-9.12,5.33-10.67c0,0,3.1,8.26,4.14,12.57S274,306.23,277,311.22s10.16,19.63,11.36,22.21a16,16,0,0,0,5.17,5.86c1.55,1,6,1.89,6,1.89a23.2,23.2,0,0,0,3.79-5.51,11.5,11.5,0,0,0,1.21-3.79s-7.58-1.55-9.3-2.24-4.68-13.78-6.06-19.8-4-12.29-5.94-14.7-1.6-9.75-2.64-16.47-.86-17-3.61-21.69-5.34-7.06-9.65-7.24-7.23,0-12.4,0A30.64,30.64,0,0,1,246.14,248.54Z" style="fill:#fff;stroke:#263238;stroke-linecap:round;stroke-linejoin:round"></path></clipPath><clipPath id="freepik--clip-path-2--inject-3"><path d="M274,332.05s-1.21-3.61-6.72-7.74-14.29-2.41-16.18.51-5,5.49-6.41,12.21-.31,25.5-.14,31.19,1.55,19.28,0,25.65a42.94,42.94,0,0,1-8.09,15.85c-3.1,4-6.54,5.16-8.09,9.12a40.49,40.49,0,0,1-4.65,8.61c-1.9,2.93-2.93,7.58-.86,7.92a7.16,7.16,0,0,0,3.44-.17,5.67,5.67,0,0,0,3.62-1.89c1.89-1.9,3.78-5.86,4.65-7.58s2.41-8.27,4.47-10.33,11.71-11.37,16.54-18.95c4.22-6.64,7.28-14.38,7.57-22.32.23-6-5.11-16.52-2.41-21.93,1.38-2.75,4.3-1.38,10-9.47S274,332.05,274,332.05Z" style="fill:#fff;stroke:#263238;stroke-linecap:round;stroke-linejoin:round"></path></clipPath><clipPath id="freepik--clip-path-3--inject-3"><path d="M244.46,335.94a98.72,98.72,0,0,0-7.27-11.46c-3.62-4.65-9.13-5.86-18.43-.69s-1,18.25,2.93,22.56S233.06,352,232,355.47c-1.75,5.86-4.64,9.24-3.74,15.51,1.46,10.16,6.85,20,11.32,29.09,3.79,7.75,9.13,15.33,9.64,18.77s-1.38,11.88-1.72,15.16,4.48,4.64,4.48,4.64,2.24,1.9,2.92-.17a34.64,34.64,0,0,0,1.55-9.12c0-2.93.52-5.69-.68-9.65s-3.1-7.57-3.62-10.33-5.85-23.07-4.82-30.48-1.38-21-1.38-24.45S245.84,339.91,244.46,335.94Z" style="fill:#fff;stroke:#263238;stroke-linecap:round;stroke-linejoin:round"></path></clipPath><clipPath id="freepik--clip-path-4--inject-3"><path d="M253.8,253.47s.34-6.82,2.39-10.74a49.29,49.29,0,0,1,4.19-6.53,20.25,20.25,0,0,0,5.35.56,2.93,2.93,0,0,0,2.39-3.92c-.51-1.54,0-9.55,0-9.55s1.88-1.88,2.22-2.39-1.88-.51-3.58-1.7-1.71-3.07-3.24-6a11.13,11.13,0,0,0-3.07-3.92s-5.8.34-6.65,5.11-.34,9-2.05,10.74-2.9,1-2.9,1-2-2.22-4.43-1.2-3.4,3-1,5.61a10,10,0,0,0,2.33,2c0,3.63.16,9.89-2,13.72a16.19,16.19,0,0,1-5.8,6" style="fill:#fff;stroke:#263238;stroke-linecap:round;stroke-linejoin:round"></path></clipPath></defs><g id="freepik--background-simple--inject-3"><path d="M139.6,99.79c-35.8,20.87-63.25,55.88-62.55,94.27.35,18.95,5.61,38,16.46,53.57,11.64,16.67,28.87,28.41,44.87,40.95s31.73,27.14,38.21,46.42c4.69,13.95,4.12,29.19,8.37,43.28,16.72,55.31,96.07,62.46,123.9,12.55,6.83-12.24,9.65-26.25,14.34-39.47s12-26.49,24.46-33c10.28-5.37,22.52-5.32,33.51-9.05,21.05-7.15,35.58-28.62,37.12-50.8S409.51,214.27,393.4,199s-37.51-24.29-59.4-28.15c-11.71-2.06-24.58-3.16-33.27-11.29-8.33-7.8-10.5-19.91-14.69-30.53a77.47,77.47,0,0,0-43.47-43.21C211.15,73.6,172,80.92,139.6,99.79Z" style="fill:#7B2CBF"></path><path d="M139.6,99.79c-35.8,20.87-63.25,55.88-62.55,94.27.35,18.95,5.61,38,16.46,53.57,11.64,16.67,28.87,28.41,44.87,40.95s31.73,27.14,38.21,46.42c4.69,13.95,4.12,29.19,8.37,43.28,16.72,55.31,96.07,62.46,123.9,12.55,6.83-12.24,9.65-26.25,14.34-39.47s12-26.49,24.46-33c10.28-5.37,22.52-5.32,33.51-9.05,21.05-7.15,35.58-28.62,37.12-50.8S409.51,214.27,393.4,199s-37.51-24.29-59.4-28.15c-11.71-2.06-24.58-3.16-33.27-11.29-8.33-7.8-10.5-19.91-14.69-30.53a77.47,77.47,0,0,0-43.47-43.21C211.15,73.6,172,80.92,139.6,99.79Z" style="fill:#fff;opacity:0.7000000000000001"></path></g><g id="freepik--Plants--inject-3"><path d="M79.09,262.41c13.4,18.63,39,23.12,39,23.12s3.89-25.72-9.51-44.36-39-23.12-39-23.12S65.69,243.77,79.09,262.41Z" style="fill:#7B2CBF"></path><path d="M79.09,262.41c13.4,18.63,39,23.12,39,23.12s3.89-25.72-9.51-44.36-39-23.12-39-23.12S65.69,243.77,79.09,262.41Z" style="fill:#fff;opacity:0.5"></path><line x1="136.53" y1="312.32" x2="69.58" y2="218.05" style="fill:none;stroke:#fff;stroke-miterlimit:10"></line><line x1="86.83" y1="242.04" x2="73.38" y2="240.77" style="fill:none;stroke:#fff;stroke-miterlimit:10"></line><line x1="94.37" y1="252.4" x2="94.55" y2="230.91" style="fill:none;stroke:#fff;stroke-miterlimit:10"></line><line x1="99.48" y1="259.61" x2="79.45" y2="257.5" style="fill:none;stroke:#fff;stroke-miterlimit:10"></line><line x1="105.21" y1="268.29" x2="110.17" y2="248.74" style="fill:none;stroke:#fff;stroke-miterlimit:10"></line><polyline points="96.39 274.97 110.45 275.41 113.2 267.35" style="fill:none;stroke:#fff;stroke-miterlimit:10"></polyline><path d="M89.53,298.5c13,2.92,25.83-5,25.83-5s-8.21-12.65-21.19-15.58-25.82,5-25.82,5S76.55,295.57,89.53,298.5Z" style="fill:#7B2CBF"></path><path d="M89.53,298.5c13,2.92,25.83-5,25.83-5s-8.21-12.65-21.19-15.58-25.82,5-25.82,5S76.55,295.57,89.53,298.5Z" style="fill:#fff;opacity:0.5"></path><line x1="85.06" y1="286.68" x2="78.73" y2="291.31" style="fill:none;stroke:#fff;stroke-miterlimit:10"></line><line x1="92.85" y1="288.34" x2="84.13" y2="278.88" style="fill:none;stroke:#fff;stroke-miterlimit:10"></line><line x1="97.3" y1="289.44" x2="87.8" y2="296.23" style="fill:none;stroke:#fff;stroke-miterlimit:10"></line><line x1="103.36" y1="290.71" x2="97.76" y2="280.61" style="fill:none;stroke:#fff;stroke-miterlimit:10"></line><line x1="108.57" y1="291.89" x2="101.87" y2="297.29" style="fill:none;stroke:#fff;stroke-miterlimit:10"></line><path d="M118.77,259.81c-2,13.16,6.9,25.38,6.9,25.38s12-9.13,14-22.29-6.9-25.39-6.9-25.39S120.72,246.64,118.77,259.81Z" style="fill:#7B2CBF"></path><path d="M118.77,259.81c-2,13.16,6.9,25.38,6.9,25.38s12-9.13,14-22.29-6.9-25.39-6.9-25.39S120.72,246.64,118.77,259.81Z" style="fill:#fff;opacity:0.5"></path><path d="M68.35,282.91l41.69,9.4a29.26,29.26,0,0,1,11.15,5.17,85.23,85.23,0,0,1,18.26,18.93s-14-18.55-13.71-30l.19-2.86,6.8-46.08" style="fill:none;stroke:#fff;stroke-miterlimit:10"></path><line x1="130.22" y1="254.46" x2="125.14" y2="248.5" style="fill:none;stroke:#fff;stroke-miterlimit:10"></line><line x1="129.15" y1="262.35" x2="137.93" y2="252.95" style="fill:none;stroke:#fff;stroke-miterlimit:10"></line><line x1="128.38" y1="266.88" x2="120.9" y2="257.91" style="fill:none;stroke:#fff;stroke-miterlimit:10"></line><line x1="127.57" y1="273.01" x2="137.22" y2="266.67" style="fill:none;stroke:#fff;stroke-miterlimit:10"></line><line x1="126.78" y1="278.29" x2="120.89" y2="272.02" style="fill:none;stroke:#fff;stroke-miterlimit:10"></line><path d="M385.38,169.47c-7.23,19.23,2.14,40.56,2.14,40.56s21.1-9.87,28.33-29.1-2.13-40.56-2.13-40.56S392.62,150.24,385.38,169.47Z" style="fill:#7B2CBF"></path><path d="M385.38,169.47c-7.23,19.23,2.14,40.56,2.14,40.56s21.1-9.87,28.33-29.1-2.13-40.56-2.13-40.56S392.62,150.24,385.38,169.47Z" style="fill:#fff;opacity:0.5"></path><line x1="376.69" y1="237.04" x2="413.72" y2="140.37" style="fill:none;stroke:#fff;stroke-miterlimit:10"></line><line x1="404.4" y1="165.13" x2="398.68" y2="154.48" style="fill:none;stroke:#fff;stroke-miterlimit:10"></line><line x1="400.42" y1="175.89" x2="416.53" y2="165.36" style="fill:none;stroke:#fff;stroke-miterlimit:10"></line><line x1="397.58" y1="183.28" x2="389.21" y2="167.3" style="fill:none;stroke:#fff;stroke-miterlimit:10"></line><line x1="393.96" y1="191.85" x2="410.99" y2="185.85" style="fill:none;stroke:#fff;stroke-miterlimit:10"></line><polyline points="384.61 188.6 391.25 199.3 398.62 197.34" style="fill:none;stroke:#fff;stroke-miterlimit:10"></polyline><path d="M363.67,195.16c4.26,11.13,16.53,16.77,16.53,16.77s5.36-12.39,1.1-23.52-16.53-16.77-16.53-16.77S359.41,184,363.67,195.16Z" style="fill:#7B2CBF"></path><path d="M363.67,195.16c4.26,11.13,16.53,16.77,16.53,16.77s5.36-12.39,1.1-23.52-16.53-16.77-16.53-16.77S359.41,184,363.67,195.16Z" style="fill:#fff;opacity:0.5"></path><line x1="370.25" y1="185.96" x2="363.67" y2="183.54" style="fill:none;stroke:#fff;stroke-miterlimit:10"></line><line x1="372.88" y1="192.59" x2="375.6" y2="181.4" style="fill:none;stroke:#fff;stroke-miterlimit:10"></line><line x1="374.27" y1="196.46" x2="364.5" y2="192.75" style="fill:none;stroke:#fff;stroke-miterlimit:10"></line><line x1="376.33" y1="201.6" x2="381.08" y2="192.42" style="fill:none;stroke:#fff;stroke-miterlimit:10"></line><line x1="378.04" y1="206.06" x2="370.69" y2="203.76" style="fill:none;stroke:#fff;stroke-miterlimit:10"></line><path d="M407,197.75c-10.78,5.08-15.49,17.73-15.49,17.73s12.76,4.42,23.54-.66,15.49-17.73,15.49-17.73S417.79,192.67,407,197.75Z" style="fill:#7B2CBF"></path><path d="M407,197.75c-10.78,5.08-15.49,17.73-15.49,17.73s12.76,4.42,23.54-.66,15.49-17.73,15.49-17.73S417.79,192.67,407,197.75Z" style="fill:#fff;opacity:0.5"></path><path d="M364.77,171.64l13.68,35.74a25.82,25.82,0,0,1,1.68,10.87,76.26,76.26,0,0,1-5,23s6.88-19.63,15.52-25.09l2.23-1.28,37.71-17.79" style="fill:none;stroke:#fff;stroke-miterlimit:10"></path><line x1="416.68" y1="203.63" x2="418.6" y2="196.88" style="fill:none;stroke:#fff;stroke-miterlimit:10"></line><line x1="410.26" y1="206.74" x2="421.63" y2="208.62" style="fill:none;stroke:#fff;stroke-miterlimit:10"></line><line x1="406.51" y1="208.42" x2="409.48" y2="198.4" style="fill:none;stroke:#fff;stroke-miterlimit:10"></line><line x1="401.54" y1="210.86" x2="411.05" y2="214.9" style="fill:none;stroke:#fff;stroke-miterlimit:10"></line><line x1="397.21" y1="212.89" x2="398.96" y2="205.39" style="fill:none;stroke:#fff;stroke-miterlimit:10"></line><path d="M279.54,232.57c-14.25,27.4-4.09,60.89-4.09,60.89s33.25-10.93,47.49-38.33S327,194.24,327,194.24,293.78,205.17,279.54,232.57Z" style="fill:#7B2CBF"></path><path d="M279.54,232.57c-14.25,27.4-4.09,60.89-4.09,60.89s33.25-10.93,47.49-38.33S327,194.24,327,194.24,293.78,205.17,279.54,232.57Z" style="fill:#fff;opacity:0.5"></path><line x1="254.44" y1="331.83" x2="327.03" y2="194.24" style="fill:none;stroke:#fff;stroke-miterlimit:10"></line><line x1="308.7" y1="229.51" x2="302.06" y2="212.58" style="fill:none;stroke:#fff;stroke-miterlimit:10"></line><line x1="300.83" y1="244.85" x2="326.74" y2="232.03" style="fill:none;stroke:#fff;stroke-miterlimit:10"></line><line x1="295.26" y1="255.36" x2="285.64" y2="230.02" style="fill:none;stroke:#fff;stroke-miterlimit:10"></line><line x1="288.32" y1="267.5" x2="314.8" y2="261.6" style="fill:none;stroke:#fff;stroke-miterlimit:10"></line><polyline points="274.95 260.97 282.94 278.12 294.29 276.53" style="fill:none;stroke:#fff;stroke-miterlimit:10"></polyline><path d="M242.53,267c4.36,17.36,21.66,28,21.66,28s10.22-17.53,5.86-34.89-21.66-28-21.66-28S238.17,249.64,242.53,267Z" style="fill:#7B2CBF"></path><path d="M242.53,267c4.36,17.36,21.66,28,21.66,28s10.22-17.53,5.86-34.89-21.66-28-21.66-28S238.17,249.64,242.53,267Z" style="fill:#fff;opacity:0.5"></path><line x1="254.01" y1="254.46" x2="244.61" y2="249.67" style="fill:none;stroke:#fff;stroke-miterlimit:10"></line><line x1="256.74" y1="264.82" x2="262.8" y2="248.61" style="fill:none;stroke:#fff;stroke-miterlimit:10"></line><line x1="258.12" y1="270.84" x2="244.2" y2="263.55" style="fill:none;stroke:#fff;stroke-miterlimit:10"></line><line x1="260.27" y1="278.88" x2="269" y2="266.03" style="fill:none;stroke:#fff;stroke-miterlimit:10"></line><line x1="262.02" y1="285.85" x2="251.47" y2="281.09" style="fill:none;stroke:#fff;stroke-miterlimit:10"></line><path d="M306.73,278.64c-17,5.65-26.29,23.68-26.29,23.68s18.25,8.89,35.24,3.24S342,281.88,342,281.88,323.73,273,306.73,278.64Z" style="fill:#7B2CBF"></path><path d="M306.73,278.64c-17,5.65-26.29,23.68-26.29,23.68s18.25,8.89,35.24,3.24S342,281.88,342,281.88,323.73,273,306.73,278.64Z" style="fill:#fff;opacity:0.5"></path><path d="M248.39,232.11l14,55.77A38.85,38.85,0,0,1,263,304.4a114.57,114.57,0,0,1-11.64,33.41s13.79-28,27.65-34.64l3.56-1.5L342,281.88" style="fill:none;stroke:#fff;stroke-miterlimit:10"></path><line x1="320.1" y1="289.15" x2="324.18" y2="279.42" style="fill:none;stroke:#fff;stroke-miterlimit:10"></line><line x1="309.97" y1="292.64" x2="326.59" y2="297.48" style="fill:none;stroke:#fff;stroke-miterlimit:10"></line><line x1="304.07" y1="294.47" x2="310.3" y2="280.05" style="fill:none;stroke:#fff;stroke-miterlimit:10"></line><line x1="296.22" y1="297.21" x2="309.68" y2="304.96" style="fill:none;stroke:#fff;stroke-miterlimit:10"></line><line x1="289.4" y1="299.48" x2="293.35" y2="288.6" style="fill:none;stroke:#fff;stroke-miterlimit:10"></line><path d="M164.8,262.77c18.29,24.88,52.83,30.56,52.83,30.56s4.88-34.65-13.41-59.53-52.82-30.57-52.82-30.57S146.51,237.89,164.8,262.77Z" style="fill:#7B2CBF"></path><path d="M164.8,262.77c18.29,24.88,52.83,30.56,52.83,30.56s4.88-34.65-13.41-59.53-52.82-30.57-52.82-30.57S146.51,237.89,164.8,262.77Z" style="fill:#fff;opacity:0.5"></path><line x1="242.77" y1="329.13" x2="151.4" y2="203.23" style="fill:none;stroke:#fff;stroke-miterlimit:10"></line><line x1="174.94" y1="235.26" x2="156.82" y2="233.74" style="fill:none;stroke:#fff;stroke-miterlimit:10"></line><line x1="185.23" y1="249.09" x2="185.17" y2="220.18" style="fill:none;stroke:#fff;stroke-miterlimit:10"></line><line x1="192.19" y1="258.73" x2="165.22" y2="256.17" style="fill:none;stroke:#fff;stroke-miterlimit:10"></line><line x1="200.03" y1="270.32" x2="206.42" y2="243.95" style="fill:none;stroke:#fff;stroke-miterlimit:10"></line><polyline points="188.25 279.43 207.18 279.84 210.76 268.95" style="fill:none;stroke:#fff;stroke-miterlimit:10"></polyline><path d="M179.36,311.18c17.5,3.76,34.67-7.06,34.67-7.06s-11.21-16.92-28.72-20.67-34.67,7.06-34.67,7.06S161.85,307.42,179.36,311.18Z" style="fill:#7B2CBF"></path><path d="M179.36,311.18c17.5,3.76,34.67-7.06,34.67-7.06s-11.21-16.92-28.72-20.67-34.67,7.06-34.67,7.06S161.85,307.42,179.36,311.18Z" style="fill:#fff;opacity:0.5"></path><line x1="173.17" y1="295.35" x2="164.72" y2="301.66" style="fill:none;stroke:#fff;stroke-miterlimit:10"></line><line x1="183.67" y1="297.47" x2="171.81" y2="284.87" style="fill:none;stroke:#fff;stroke-miterlimit:10"></line><line x1="189.68" y1="298.89" x2="176.99" y2="308.16" style="fill:none;stroke:#fff;stroke-miterlimit:10"></line><line x1="197.84" y1="300.51" x2="190.17" y2="287.01" style="fill:none;stroke:#fff;stroke-miterlimit:10"></line><line x1="204.87" y1="302.02" x2="195.94" y2="309.39" style="fill:none;stroke:#fff;stroke-miterlimit:10"></line><path d="M218.15,258.72c-2.44,17.74,9.63,34,9.63,34s16-12.44,18.47-30.18-9.63-34-9.63-34S220.59,241,218.15,258.72Z" style="fill:#7B2CBF"></path><path d="M218.15,258.72c-2.44,17.74,9.63,34,9.63,34s16-12.44,18.47-30.18-9.63-34-9.63-34S220.59,241,218.15,258.72Z" style="fill:#fff;opacity:0.5"></path><path d="M150.64,290.51l56.22,12.07a39,39,0,0,1,15.06,6.8,114.48,114.48,0,0,1,24.84,25.2s-19.07-24.75-18.87-40.11l.22-3.85,8.51-62.08" style="fill:none;stroke:#fff;stroke-miterlimit:10"></path><line x1="233.48" y1="251.37" x2="226.56" y2="243.42" style="fill:none;stroke:#fff;stroke-miterlimit:10"></line><line x1="232.15" y1="262" x2="243.83" y2="249.23" style="fill:none;stroke:#fff;stroke-miterlimit:10"></line><line x1="231.18" y1="268.1" x2="220.99" y2="256.14" style="fill:none;stroke:#fff;stroke-miterlimit:10"></line><line x1="230.17" y1="276.36" x2="243.07" y2="267.7" style="fill:none;stroke:#fff;stroke-miterlimit:10"></line><line x1="229.19" y1="283.48" x2="221.18" y2="275.13" style="fill:none;stroke:#fff;stroke-miterlimit:10"></line><path d="M337.4,227.73c2.35-2.55,4.69-4.81,5.12-8.43.33-2.86-.49-6.31-4-6.28-4.73,0-6.16,6.77-5.88,10.51.18,2.29.6,5.37.88,7.26-.8-1.9-1.39-3.49-1.76-4.55h0a0,0,0,0,1,0,0l-.39-1.12a31.73,31.73,0,0,1,.11-4.82c.16-3.46.5-6.7-1.5-9.75-1.59-2.41-4.44-4.52-7.1-2.25-3.59,3.08-.36,9.15,2.26,11.84,1.85,1.88,4.62,4.35,5.91,5.49.36,1,1.17,3.36,2.41,6.2a28.88,28.88,0,0,1-3.81-3.19c-2.6-2.29-4.91-4.59-8.53-4.95-2.88-.27-6.31.62-6.21,4.11.13,4.73,6.89,6,10.63,5.68,2.7-.26,6.49-.89,8.12-1.18a69.89,69.89,0,0,0,4.41,8.46c.1.15.21.31.31.48a28,28,0,0,1-4.52-2.17c-3.08-1.58-5.88-3.24-9.49-2.69-2.85.43-6,2.14-5,5.51,1.29,4.55,8.16,4.15,11.69,2.88,2.56-.92,6.07-2.46,7.59-3.14.9,1.32,2.06,2.77,3.37,4.41s2.77,3.48,4.24,5.52v0c-1,.44-4.72-1.8-5.54-2.22-3.08-1.59-5.88-3.25-9.49-2.7-2.85.44-6,2.15-5,5.51,1.29,4.55,8.17,4.15,11.7,2.88,3.29-1.18,8.19-3.4,8.33-3.47v.17a.5.5,0,0,1,0-.16,61.73,61.73,0,0,1,4.63,7.43c-1.3.29-4.75-.67-5.56-.84-3.39-.72-6.53-1.6-9.86-.12-2.64,1.17-5.19,3.64-3.38,6.63,2.44,4.06,9,1.86,12-.29,2.44-1.7,5.79-4.43,6.82-5.28a45.57,45.57,0,0,1,3.72,9.58c-1.44.17-4.59-.71-5.36-.87-3.39-.72-6.53-1.59-9.87-.12-2.63,1.17-5.18,3.64-3.38,6.63,2.45,4.06,9,1.86,12-.28,2.29-1.61,5.4-4.13,6.62-5.12a42.18,42.18,0,0,1,1.08,14l.47,0a42.65,42.65,0,0,0-1.08-14.11c.83-.88,4.73-1.46,5.58-1.64,3.39-.73,6.61-1.22,9-3.93,1.93-2.15,3.25-5.44.38-7.44-3.89-2.7-8.95,2-10.87,5.19-1.61,2.68-3.66,6.8-4.14,7.77l-.06-.24.11-.09-.12.06a45.84,45.84,0,0,0-3.77-9.71c.84-1,4.28-2.23,5.05-2.57,3.18-1.37,6.25-2.47,8.11-5.6,1.48-2.48,2.13-6-1.07-7.37-4.34-1.89-8.39,3.67-9.66,7.2-1,2.77-2.14,6.89-2.5,8.21a62.48,62.48,0,0,0-4.79-7.61c.84-1.21,3.46-3,4.07-3.49,2.72-2.14,5.4-4,6.4-7.5.8-2.77.54-6.31-2.92-6.84-4.67-.73-7.17,5.69-7.49,9.42-.23,2.63-.3,6.32-.32,8-1.34-1.83-2.67-3.5-3.88-5s-2.41-3-3.3-4.31l.32-.14a1.06,1.06,0,0,1-.38.05l0-.07c.65-1.14,3.81-3,4.5-3.46,2.88-1.93,5.68-3.58,6.94-7,1-2.71,1-6.25-2.42-7-4.61-1.06-7.57,5.16-8.16,8.86-.47,2.9-.83,7.15-.94,8.53-.15-.22-.29-.44-.42-.65a67.18,67.18,0,0,1-4.33-8.29l.33-.06a.88.88,0,0,1-.38,0l-.13-.31A24.05,24.05,0,0,1,337.4,227.73Z" style="fill:#263238"></path><path d="M414.46,241.26c2.72,1.38,5.2,2.84,8.38,2.34,2.51-.39,5.25-1.92,4.39-4.88-1.16-4-7.22-3.63-10.33-2.5-1.91.69-4.42,1.79-6,2.47,1.42-1.12,2.64-2,3.44-2.57h0v0l.86-.59a26.45,26.45,0,0,1,4.13-1.05c3-.7,5.81-1.17,7.92-3.6,1.67-1.92,2.79-4.84.23-6.56-3.47-2.33-7.87,1.86-9.52,4.73-1.17,2-2.61,5-3.27,6.33-.81.55-2.57,1.79-4.69,3.51a24.91,24.91,0,0,1,1.8-4c1.33-2.76,2.74-5.26,2.18-8.43-.45-2.51-2-5.21-5-4.3-4,1.24-3.49,7.3-2.3,10.38.87,2.24,2.3,5.31,2.93,6.63a61.63,61.63,0,0,0-6.13,5.76l-.34.38A25.9,25.9,0,0,1,404,241c.62-3,1.37-5.77,0-8.71-1-2.32-3.24-4.55-5.87-2.94-3.56,2.18-1.59,7.93.33,10.63,1.38,1.95,3.53,4.57,4.47,5.7-.9,1.08-1.87,2.41-2.95,3.91s-2.3,3.18-3.68,4.91h0c-.6-.74.41-4.44.58-5.24.61-3,1.36-5.77,0-8.7-1.05-2.32-3.24-4.55-5.87-2.94-3.56,2.18-1.58,7.92.33,10.62,1.79,2.52,4.84,6.16,4.93,6.26l-.14,0,.14,0a55.24,55.24,0,0,1-5.21,5.71c-.56-1-.56-4.2-.61-4.93-.19-3-.19-5.92-2.24-8.41-1.62-2-4.33-3.54-6.44-1.29-2.87,3,.55,8.06,3.11,10.16,2,1.67,5.14,3.87,6.1,4.54a39.44,39.44,0,0,1-7.25,5.44,19.39,19.39,0,0,1-.53-4.76c-.2-3.06-.2-5.93-2.25-8.41-1.62-2-4.32-3.55-6.44-1.3-2.86,3,.55,8.06,3.11,10.17,1.91,1.57,4.79,3.61,5.92,4.41a37.17,37.17,0,0,1-11.66,4.25l.07.41a37.67,37.67,0,0,0,11.74-4.27c.94.49,2.36,3.67,2.72,4.35,1.42,2.71,2.6,5.33,5.49,6.75,2.28,1.13,5.39,1.47,6.4-1.44,1.37-3.95-3.8-7.14-7-8-2.65-.73-6.65-1.5-7.58-1.67a1.18,1.18,0,0,1,.19-.11l.1.07a.3.3,0,0,1-.08-.08,39.87,39.87,0,0,0,7.35-5.52c1.06.48,2.92,3.11,3.39,3.69,1.92,2.38,3.59,4.72,6.69,5.56,2.46.66,5.58.39,6-2.66.58-4.14-5.12-6.27-8.42-6.5-2.59-.19-6.36-.18-7.57-.18a53.78,53.78,0,0,0,5.33-5.88,21,21,0,0,1,3.93,2.63c2.47,1.81,4.68,3.65,7.9,3.66,2.54,0,5.49-1,5.12-4.1-.5-4.15-6.54-4.75-9.79-4.14-2.29.43-5.44,1.25-6.92,1.65,1.24-1.58,2.35-3.1,3.35-4.49s2-2.77,2.88-3.83l.19.24a.86.86,0,0,1-.13-.32l.05-.05c1.12.27,3.44,2.52,4,3,2.33,2,4.4,4,7.61,4.23,2.54.2,5.55-.64,5.41-3.73-.19-4.17-6.18-5.21-9.47-4.83-2.58.29-6.27,1-7.47,1.23q.22-.27.45-.51a59.48,59.48,0,0,1,6-5.65,2.51,2.51,0,0,0,.13.26.65.65,0,0,1-.06-.33l.23-.18A20.67,20.67,0,0,1,414.46,241.26Z" style="fill:#263238"></path><path d="M123.92,126.56c3.19-1.51,6.27-2.74,8.06-6,1.41-2.57,2-6.14-1.36-7.46-4.48-1.77-8.41,4-9.57,7.67-.72,2.23-1.5,5.3-2,7.19,0-2.1,0-3.83.08-5v0a0,0,0,0,0,0,0c0-.55.06-1,.07-1.2a31.65,31.65,0,0,1,2-4.51c1.48-3.21,3-6.13,2.32-9.77-.57-2.89-2.45-6-5.83-4.85-4.57,1.52-3.85,8.5-2.41,12,1,2.49,2.69,5.88,3.47,7.46-.06,1.12-.18,3.61-.1,6.77a28.94,28.94,0,0,1-2.38-4.47c-1.57-3.16-2.86-6.22-6.15-7.94-2.6-1.37-6.18-1.84-7.43,1.5-1.69,4.51,4.19,8.33,7.85,9.42,2.65.8,6.47,1.65,8.12,2a71.37,71.37,0,0,0,.92,9.67c0,.19.07.38.11.57a28.51,28.51,0,0,1-3.44-3.77c-2.3-2.68-4.31-5.32-7.92-6.19-2.86-.68-6.45-.25-6.83,3.29-.53,4.79,6.11,7,9.93,7.2,2.76.11,6.67,0,8.36,0,.35,1.58.88,3.4,1.49,5.45s1.28,4.35,1.88,6.83v0c-1.1,0-3.76-3.51-4.37-4.22-2.3-2.68-4.3-5.32-7.92-6.18-2.85-.68-6.44-.26-6.83,3.28-.52,4.79,6.12,7,9.93,7.2,3.56.15,9-.07,9.19-.08l-.06.16a1,1,0,0,1,.08-.14,63.65,63.65,0,0,1,1.54,8.79c-1.35-.23-4.23-2.46-4.93-2.93-2.92-2-5.55-4-9.26-3.89-2.94.09-6.29,1.44-5.74,5,.76,4.76,7.75,5.19,11.48,4.35,3-.68,7.16-2,8.46-2.37a46.07,46.07,0,0,1-.17,10.46c-1.41-.39-4.05-2.43-4.72-2.88-2.92-2-5.55-4-9.26-3.89-2.94.09-6.29,1.44-5.73,5,.75,4.76,7.75,5.2,11.47,4.35,2.78-.64,6.69-1.82,8.21-2.29a42.9,42.9,0,0,1-4.35,13.65l.42.22A43.19,43.19,0,0,0,125,172.23c1.12-.51,5,.44,5.89.59,3.48.61,6.71,1.38,10-.24,2.64-1.29,5.14-3.89,3.2-6.87-2.63-4-9.2-1.57-12.25.73-2.53,1.91-6.06,5-6.88,5.74l0-.25.14-.05a.3.3,0,0,1-.13,0,46.22,46.22,0,0,0,.16-10.61c1.18-.62,4.9-.46,5.75-.48,3.53-.08,6.85.06,9.81-2.19,2.34-1.77,4.3-4.81,1.81-7.36-3.37-3.45-9.33.25-11.88,3.09-2,2.24-4.66,5.68-5.5,6.8a64.76,64.76,0,0,0-1.6-9c1.25-.82,4.41-1.51,5.17-1.73,3.39-1,6.63-1.69,8.92-4.62,1.81-2.31,2.93-5.75-.13-7.58-4.14-2.47-8.95,2.62-10.69,6-1.22,2.38-2.7,5.84-3.38,7.47-.56-2.25-1.18-4.33-1.74-6.23s-1.11-3.78-1.46-5.33h.36a1,1,0,0,1-.38-.1l0-.08c1-.83,4.73-1.36,5.57-1.54,3.45-.73,6.74-1.21,9.23-4,2-2.17,3.34-5.52.42-7.56-3.94-2.77-9.12,2-11.1,5.22-1.55,2.56-3.52,6.43-4.15,7.69-.06-.26-.11-.52-.15-.77a70,70,0,0,1-.91-9.48l.34.07a.73.73,0,0,1-.34-.19c0-.11,0-.23,0-.34A24.2,24.2,0,0,1,123.92,126.56Z" style="fill:#263238"></path><path d="M90.86,187.36c1.58-3.16,3.24-6,2.64-9.69-.48-2.9-2.26-6-5.67-5C83.21,174,83.7,181,85,184.58c.82,2.2,2.1,5.09,2.9,6.86-1.31-1.63-2.34-3-3-3.95h0c-.32-.45-.55-.8-.69-1A32.37,32.37,0,0,1,83,181.74c-.82-3.44-1.39-6.7-4.21-9.12-2.23-1.91-5.62-3.18-7.58-.21-2.66,4,2.22,9.06,5.54,11,2.34,1.33,5.74,3,7.33,3.72.64.92,2.09,2.95,4.1,5.39a29.35,29.35,0,0,1-4.63-2.05c-3.19-1.51-6.09-3.12-9.74-2.44-2.89.53-6,2.37-4.92,5.76,1.46,4.6,8.44,4,12,2.57,2.57-1,6.11-2.7,7.63-3.44a70.54,70.54,0,0,0,6.69,7l.44.38a28.39,28.39,0,0,1-5-.84c-3.46-.69-6.67-1.53-10,0-2.67,1.22-5.23,3.77-3.35,6.8,2.55,4.09,9.16,1.76,12.26-.47,2.24-1.62,5.25-4.12,6.54-5.21,1.26,1,2.8,2.13,4.54,3.37s3.69,2.63,5.7,4.21v0c-.85.71-5.13-.44-6-.62-3.46-.68-6.67-1.52-10,0-2.67,1.23-5.23,3.78-3.35,6.8,2.55,4.09,9.16,1.77,12.26-.47,2.89-2.08,7.06-5.64,7.18-5.74l0,.17a.86.86,0,0,1,0-.16,62.63,62.63,0,0,1,6.63,6c-1.2.65-4.85.68-5.69.74-3.52.25-6.83.28-9.68,2.66-2.25,1.89-4.06,5-1.45,7.44,3.53,3.28,9.3-.7,11.71-3.67,1.91-2.35,4.42-6,5.19-7.09a45.56,45.56,0,0,1,6.33,8.34c-1.35.56-4.69.59-5.49.65-3.52.25-6.84.28-9.68,2.66-2.26,1.89-4.06,5-1.45,7.44,3.53,3.28,9.3-.7,11.71-3.67,1.79-2.22,4.13-5.56,5-6.87a43,43,0,0,1,5,13.42l.46-.09a43.18,43.18,0,0,0-5-13.5c.56-1.1,4.22-2.76,5-3.18,3.11-1.67,6.12-3,7.75-6.39,1.28-2.64,1.65-6.24-1.73-7.38-4.56-1.55-8.2,4.44-9.18,8.14-.81,3.06-1.67,7.68-1.87,8.76l-.12-.22.08-.12a.32.32,0,0,1-.1.1,46.44,46.44,0,0,0-6.42-8.45c.54-1.22,3.57-3.39,4.22-3.93,2.73-2.24,5.42-4.18,6.37-7.77.74-2.84.4-6.44-3.13-6.91-4.78-.63-7.18,5.95-7.43,9.76-.19,3-.15,7.35-.13,8.75a63.8,63.8,0,0,0-6.83-6.11c.48-1.42,2.53-3.92,3-4.56,2.07-2.86,4.17-5.42,4.17-9.14,0-2.94-1.25-6.33-4.79-5.88-4.78.61-5.42,7.59-4.68,11.34.51,2.63,1.48,6.26,2,8-1.83-1.42-3.6-2.68-5.21-3.83s-3.21-2.28-4.44-3.29l.27-.23a.93.93,0,0,1-.36.16l-.06-.05c.31-1.3,2.88-4,3.43-4.65,2.27-2.71,4.55-5.11,4.82-8.82.21-2.93-.79-6.4-4.35-6.21-4.81.26-6,7.18-5.5,11,.36,3,1.2,7.23,1.48,8.61-.21-.17-.4-.35-.59-.52a68,68,0,0,1-6.57-6.89l.3-.15a.84.84,0,0,1-.38.06l-.22-.26A24.61,24.61,0,0,1,90.86,187.36Z" style="fill:#263238"></path><path d="M177.33,186.52c1.15,3.11,1.84,5.47,4.28,7.43,1.92,1.55,4.74,3.27,6.73.85,2.69-3.28-1.6-7-4.75-8.72-1.92-1.06-4.68-2.39-6.82-3.3,1.66.37,3.37.82,5,1.33h0l.06,0c.14,0,1,.31,1.17.38a32.56,32.56,0,0,1,4,2.61c2.8,2,5.12,4,8.16,4.33,2.41.26,4.7-.71,4.46-3.47-.32-3.73-5.27-4.29-8.72-4.28-2.43,0-5.61.13-8.15.33-2.25-.72-4.59-1.3-6.81-1.82a31.51,31.51,0,0,1,4.71-.62c3.43-.42,6.76,0,9.05-2.52,1.81-2,1.8-4.63-.87-6.07-3.61-1.94-8,.53-10.11,3.5a58.66,58.66,0,0,0-3.37,5.61,65.31,65.31,0,0,0-9.56-1.25c-.18,0-.4,0-.51,0,.74-.7,3.24-1.51,3.86-1.8,3-1.42,5.71-1.84,7.38-4.74,1.32-2.29.57-4.93-2.4-5.61-4-.92-7.26,2.41-8.31,5.89a32.54,32.54,0,0,0-1,6.28,34.24,34.24,0,0,0-5.13.37c-1.73.39-3.5,1.35-5.22,1.92,0,0,0,0,0,0,.18-1.3,2.6-3.06,3.27-3.6,2.53-2.05,4.83-2.67,6.33-5.52,1.18-2.25.52-4.74-2.48-5.21-4.06-.64-6.62,4.33-7,7.1a51.69,51.69,0,0,0-.15,6.89c0,1.38-.12-.13-.12.26s.09-.16.1.14c-2.31.84-4.66,1.87-7,2.63.1-1.15,1.81-3.57,2.19-4.24,1.57-2.83,3.26-4.68,3.29-7.76,0-2.43-1.55-4.56-4.31-3.65-3.74,1.23-4.3,6.14-3.49,9.41a50.86,50.86,0,0,0,2.2,6.32c-2.79.88-5.55,1.83-8.48,1.53a18,18,0,0,1,2-3.79c1.57-2.89,3.14-5.16,3.05-8.27-.07-2.47-1.42-4.8-4.21-3.86-3.77,1.26-4,6.2-3.21,9.51a52.22,52.22,0,0,0,2.2,6.43,40.7,40.7,0,0,1-10.68-3.24c-.05.11-.09.22-.14.32a42.13,42.13,0,0,0,10.74,3.29c.48,1,0,3.37,0,4.09-.23,2.86-.49,4.87.87,7.26,1.07,1.89,3.25,3.61,5.25,1.8,2.69-2.45,1.17-6.64-1-8.79-1.81-1.78-3.47-2.68-5-4.36-.12-.13.19.05.17,0s0,.13,0,.1a.17.17,0,0,0,0-.11c3,.18,5.76-.68,8.6-1.56.6.85.52,3.42.57,4.11.23,2.9.18,5.14,2,7.27,1.41,1.68,3.63,2.7,5.34.65,2.31-2.78.14-6.9-2.28-8.87a27.76,27.76,0,0,0-5.47-3.25c2.42-.81,4.76-1.84,7.16-2.69.59.77,1.07,3.17,1.26,3.82.87,2.89,1.37,5.28,3.58,7.11,1.74,1.45,4.27,2.61,5.87.2,2.16-3.25-1.71-7.07-4.5-8.74A24.56,24.56,0,0,0,155,183.3a47.87,47.87,0,0,1,4.78-1.71,38,38,0,0,1,5-.38s.08.28,0,.27.09-.24.11-.27.07,0,.08,0c.71.9.84,3.55,1,4.3.56,3.14.86,5.57,2.91,7.78,1.63,1.75,4.07,3.54,6.32,1.5,3-2.76-.45-7.07-3.2-9.06-2.15-1.57-4.57-3.12-6.85-4.54.23,0,.48,0,.72,0a65.61,65.61,0,0,1,9.37,1.2s0,.26-.13.22.18-.2.25-.19.28,0,.33.1C176.34,183.36,177.08,185.84,177.33,186.52Z" style="fill:#263238"></path><path d="M177.33,186.52c1.15,3.11,1.84,5.47,4.28,7.43,1.92,1.55,4.74,3.27,6.73.85,2.69-3.28-1.6-7-4.75-8.72-1.92-1.06-4.68-2.39-6.82-3.3,1.66.37,3.37.82,5,1.33h0l.06,0c.14,0,1,.31,1.17.38a32.56,32.56,0,0,1,4,2.61c2.8,2,5.12,4,8.16,4.33,2.41.26,4.7-.71,4.46-3.47-.32-3.73-5.27-4.29-8.72-4.28-2.43,0-5.61.13-8.15.33-2.25-.72-4.59-1.3-6.81-1.82a31.51,31.51,0,0,1,4.71-.62c3.43-.42,6.76,0,9.05-2.52,1.81-2,1.8-4.63-.87-6.07-3.61-1.94-8,.53-10.11,3.5a58.66,58.66,0,0,0-3.37,5.61,65.31,65.31,0,0,0-9.56-1.25c-.18,0-.4,0-.51,0,.74-.7,3.24-1.51,3.86-1.8,3-1.42,5.71-1.84,7.38-4.74,1.32-2.29.57-4.93-2.4-5.61-4-.92-7.26,2.41-8.31,5.89a32.54,32.54,0,0,0-1,6.28,34.24,34.24,0,0,0-5.13.37c-1.73.39-3.5,1.35-5.22,1.92,0,0,0,0,0,0,.18-1.3,2.6-3.06,3.27-3.6,2.53-2.05,4.83-2.67,6.33-5.52,1.18-2.25.52-4.74-2.48-5.21-4.06-.64-6.62,4.33-7,7.1a51.69,51.69,0,0,0-.15,6.89c0,1.38-.12-.13-.12.26s.09-.16.1.14c-2.31.84-4.66,1.87-7,2.63.1-1.15,1.81-3.57,2.19-4.24,1.57-2.83,3.26-4.68,3.29-7.76,0-2.43-1.55-4.56-4.31-3.65-3.74,1.23-4.3,6.14-3.49,9.41a50.86,50.86,0,0,0,2.2,6.32c-2.79.88-5.55,1.83-8.48,1.53a18,18,0,0,1,2-3.79c1.57-2.89,3.14-5.16,3.05-8.27-.07-2.47-1.42-4.8-4.21-3.86-3.77,1.26-4,6.2-3.21,9.51a52.22,52.22,0,0,0,2.2,6.43,40.7,40.7,0,0,1-10.68-3.24c-.05.11-.09.22-.14.32a42.13,42.13,0,0,0,10.74,3.29c.48,1,0,3.37,0,4.09-.23,2.86-.49,4.87.87,7.26,1.07,1.89,3.25,3.61,5.25,1.8,2.69-2.45,1.17-6.64-1-8.79-1.81-1.78-3.47-2.68-5-4.36-.12-.13.19.05.17,0s0,.13,0,.1a.17.17,0,0,0,0-.11c3,.18,5.76-.68,8.6-1.56.6.85.52,3.42.57,4.11.23,2.9.18,5.14,2,7.27,1.41,1.68,3.63,2.7,5.34.65,2.31-2.78.14-6.9-2.28-8.87a27.76,27.76,0,0,0-5.47-3.25c2.42-.81,4.76-1.84,7.16-2.69.59.77,1.07,3.17,1.26,3.82.87,2.89,1.37,5.28,3.58,7.11,1.74,1.45,4.27,2.61,5.87.2,2.16-3.25-1.71-7.07-4.5-8.74A24.56,24.56,0,0,0,155,183.3a47.87,47.87,0,0,1,4.78-1.71,38,38,0,0,1,5-.38s.08.28,0,.27.09-.24.11-.27.07,0,.08,0c.71.9.84,3.55,1,4.3.56,3.14.86,5.57,2.91,7.78,1.63,1.75,4.07,3.54,6.32,1.5,3-2.76-.45-7.07-3.2-9.06-2.15-1.57-4.57-3.12-6.85-4.54.23,0,.48,0,.72,0a65.61,65.61,0,0,1,9.37,1.2s0,.26-.13.22.18-.2.25-.19.28,0,.33.1C176.34,183.36,177.08,185.84,177.33,186.52Z" style="fill:#263238;opacity:0.5"></path></g><g id="freepik--Symbol--inject-3"><path d="M381,99.13l15.27-18.72A3.7,3.7,0,0,0,397,79l.78-3.13a3.68,3.68,0,0,0-1.25-3.73l-8.71-7a3.64,3.64,0,0,0-5,.43L362.09,89.13a3.66,3.66,0,0,1-5.1.38L333.45,69.7a3.64,3.64,0,0,0-5.16.46l-7.77,9.39a3.62,3.62,0,0,0-.82,2.74l.27,2.37a3.71,3.71,0,0,0,1.3,2.4l21.76,18a3.64,3.64,0,0,1,.45,5.19L330,126a143.26,143.26,0,0,0-84.41-27.08c-76.34,0-138.23,58.24-138.23,130.08s61.89,130.08,138.23,130.08S383.81,300.84,383.81,229c0-34.6-14.35-66-37.76-89.34l14.13-16.5a3.66,3.66,0,0,1,5.08-.45l21.06,17.18a3.66,3.66,0,0,0,5.15-.53l10.41-12.84a3.64,3.64,0,0,0,.82-2.3v-.59a3.62,3.62,0,0,0-1.32-2.8l-19.91-16.59A3.66,3.66,0,0,1,381,99.13ZM364.28,229c0,61.69-53.14,111.69-118.69,111.69s-118.7-50-118.7-111.69S180,117.31,245.59,117.31,364.28,167.31,364.28,229Z" style="fill:#263238;stroke:#263238;stroke-linecap:round;stroke-linejoin:round"></path><path d="M391.2,135.72l9.16-11a3.65,3.65,0,0,0-.47-5.14l-20.76-17.3a3.66,3.66,0,0,1-.46-5.14L396,76.39a3.65,3.65,0,0,0-.47-5.14l-11-9.16a3.65,3.65,0,0,0-5.14.46l-17.3,20.76a3.66,3.66,0,0,1-5.15.47l-20.75-17.3A3.66,3.66,0,0,0,331,67l-9.16,11a3.65,3.65,0,0,0,.47,5.14l20.81,17.34a3.65,3.65,0,0,1,.5,5.09L330,122.44a137.57,137.57,0,0,0-82.34-28.75C170.88,92.56,107.4,155,107.36,231.82a138.23,138.23,0,0,0,138.28,138.3c77.25,0,138.64-61.82,138.17-139.07A137.74,137.74,0,0,0,346.05,137l14.12-17.52a3.65,3.65,0,0,1,5.18-.51l20.71,17.26A3.65,3.65,0,0,0,391.2,135.72ZM245.59,350.59A118.7,118.7,0,1,1,364.28,231.9,118.69,118.69,0,0,1,245.59,350.59Z" style="fill:#7B2CBF;stroke:#263238;stroke-linecap:round;stroke-linejoin:round"></path></g><g id="freepik--Character--inject-3"><path d="M264.73,215.59s.94.72,2.57-1.7-1.63-3.4-2.57-5.58,2.33-1.94,1.87-6.55-7-6.54-11.43-3.88-3.73,7.76-5.59,8.25-4.67-3.15-11.9-.24-8.39,12.61-8.39,16,.7,9-3.27,10.67-16.55-6.3-29.61-.48-9.79,16.73-7.23,20.85,3,6.55-6.06,8-17.72,10.43-17.26,19.89,5.37,21.82,24.95,24.49,29.15-5.09,36.38-14.79S230,270.63,238.62,267s18.65-8.25,22.38-12.61-.93-9.95-1.86-13.58,4-3.64,5.59-8.73-2.1-9-3.73-12.37S264.73,215.59,264.73,215.59Z" style="fill:#263238;stroke:#263238;stroke-linecap:round;stroke-linejoin:round"></path><path d="M198.17,243.47a17,17,0,0,0-.92,2.06" style="fill:none;stroke:#fff;stroke-linecap:round;stroke-linejoin:round;stroke-width:0.5px"></path><path d="M249.16,212.11a7.25,7.25,0,0,1-3.93,2.91c-6.51,2.37-13.32,5.34-13.62,10.67s6.22,10.95.59,13.32-10.66-3.25-20.43-3.25c-6,0-9.64,2.44-11.85,5.08" style="fill:none;stroke:#fff;stroke-linecap:round;stroke-linejoin:round;stroke-width:0.5px"></path><path d="M249.68,207a6.7,6.7,0,0,1,.24,3" style="fill:none;stroke:#fff;stroke-linecap:round;stroke-linejoin:round;stroke-width:0.5px"></path><path d="M177,288.64c5.22-1.7,14.08-.63,20.58-1.65,9.48-1.48,10.37-9.18,7.7-18.65s-8.69-18,2.37-23.7a15.69,15.69,0,0,1,6.78-1.76,16.8,16.8,0,0,1,10.73,3.74,15.89,15.89,0,0,0,9.15,3.35c7.1.3,10.42-4.91,9.77-12.14s-6.52-8.29-6.22-13.62,7.4-6.52,11-7.41,5.63-4.44,5.63-4.44" style="fill:none;stroke:#fff;stroke-linecap:round;stroke-linejoin:round;stroke-width:0.5px"></path><path d="M172.67,293.21a4.8,4.8,0,0,1,.94-2.41" style="fill:none;stroke:#fff;stroke-linecap:round;stroke-linejoin:round;stroke-width:0.5px"></path><path d="M186.68,330.72s-5.34,0-6.72.17-6.54,4.14-6.89,5.17.35.34,2.24.17,5-1.55,6.2-1.55a37.13,37.13,0,0,0,4.13-.51,58,58,0,0,1-5.85,2.06c-2.07.52-3.1,1.38-1.72,1.9s4.47-1.21,5.34-1.38,1.2.34,4.13.34,5.34-.34,5.85-1.55S193.22,329.34,186.68,330.72Z" style="fill:#fff;stroke:#263238;stroke-linecap:round;stroke-linejoin:round"></path><path d="M299.18,340s3.27.68,4.3,1,2.93,1.89,2.76.17-2.76-2.75-3.44-2.75,4.13.51,5.33,1.2,4.31,1.55,4.65.69-1-1.72-2.24-3.1a15,15,0,0,0-4.13-3.44,13.34,13.34,0,0,0-4-.86s-3.44,1.2-3.61,3.27S297.63,339.29,299.18,340Z" style="fill:#fff;stroke:#263238;stroke-linecap:round;stroke-linejoin:round"></path><path d="M224.62,311.22s-7.06,6.54-9,14.64,1.55,17.39,10.68,22.21,29.1,1.89,36.16.86,11.19-9.64,12.57-17.39-6.71-17.91-9.12-19.8-7.06-4.31-15.16-5S235.47,304.5,224.62,311.22Z" style="fill:#7B2CBF;stroke:#263238;stroke-linecap:round;stroke-linejoin:round"></path><path d="M246.14,248.54s-8.78,2.93-12.91,2.93-8.72-1.64-12.85,1.63-6.27,9.9-6.95,17.14-2.33,17.1-3.7,20-8,13.89-8.53,16.64-5.57,19.68-6.26,21.23-9.12,1.89-9.12,1.89-.18,4.82.86,7.23l1,2.42a22.1,22.1,0,0,0,9.13-2.76c4.47-2.58,7.75-11.71,9.12-14.64s9.1-19.1,12.38-24.61,6.11-19.17,6.11-19.17-.35,6.54,2.75,10.68,2.93,8.95,2.58,12.05-3.27,4.82-5.16,5.86,1.55,2.58,1.55,2.58-3.45,0-3.45,1.2,2.59,1.9,9,5.86,17.56,3.27,24.62.69,10.16-3.62,10.85-5.17a1.41,1.41,0,0,0-.69-2.06s2.07,0,1.21-2.42-4.31-4-4.65-4.64-2.58-7.58-.17-10.34,5-9.12,5.33-10.67c0,0,3.1,8.26,4.14,12.57S274,306.23,277,311.22s10.16,19.63,11.36,22.21a16,16,0,0,0,5.17,5.86c1.55,1,6,1.89,6,1.89a23.2,23.2,0,0,0,3.79-5.51,11.5,11.5,0,0,0,1.21-3.79s-7.58-1.55-9.3-2.24-4.68-13.78-6.06-19.8-4-12.29-5.94-14.7-1.6-9.75-2.64-16.47-.86-17-3.61-21.69-5.34-7.06-9.65-7.24-7.23,0-12.4,0A30.64,30.64,0,0,1,246.14,248.54Z" style="fill:#fff"></path><g style="clip-path:url(#freepik--clip-path--inject-3)"><path d="M267,285.4c-2.5-3.73-8.5-8.55-22.94-8.55-11.21,0-16.61,4.21-19.05,7.29a13.41,13.41,0,0,0,2.19,5c3.1,4.13,2.93,8.95,2.58,12.05a6.37,6.37,0,0,1-2.75,4.33c5.14,4.93,15.39,8.72,25,5.88a22.66,22.66,0,0,0,11.39-7.94,1.33,1.33,0,0,1-.36-.37c-.35-.69-2.58-7.58-.17-10.34A31.07,31.07,0,0,0,267,285.4Z" style="fill:#7B2CBF"></path><path d="M222.08,265.68c-2.32,0-6.65,4.59-8.94,7.22-.79,6.81-2.2,14.78-3.41,17.37-1.38,2.92-8,13.89-8.53,16.64-.23,1.24-1.38,5.35-2.64,9.64a17.78,17.78,0,0,0,1.54,2.82c2.47,3.61,4.48,3.63,6.22,2.17,2-4.27,9-18.72,12-23.87,3.27-5.51,6.11-19.17,6.11-19.17a15.19,15.19,0,0,0,0,1.59C224.85,273.45,224.35,265.68,222.08,265.68Z" style="fill:#7B2CBF"></path><path d="M289.16,309.84c-1.37-6-4-12.29-5.94-14.7s-1.6-9.75-2.64-16.47c-.18-1.19-.32-2.49-.46-3.86-.56-2.64-2.09-6.36-6.15-5.17-4.27,1.26-5,8.47-5.11,14.31,1,2.68,2.73,7.69,3.46,10.74,1,4.3,1.72,11.54,4.65,16.53,2.11,3.61,6.48,12.27,9.2,17.76,3.34,2.14,6.25,1.11,6.51-5.06C291.35,319.44,290,313.4,289.16,309.84Z" style="fill:#7B2CBF"></path><g style="opacity:0.5"><path d="M267,285.4c-2.5-3.73-8.5-8.55-22.94-8.55-11.21,0-16.61,4.21-19.05,7.29a13.41,13.41,0,0,0,2.19,5c3.1,4.13,2.93,8.95,2.58,12.05a6.37,6.37,0,0,1-2.75,4.33c5.14,4.93,15.39,8.72,25,5.88a22.66,22.66,0,0,0,11.39-7.94,1.33,1.33,0,0,1-.36-.37c-.35-.69-2.58-7.58-.17-10.34A31.07,31.07,0,0,0,267,285.4Z" style="fill:#fff"></path><path d="M222.08,265.68c-2.32,0-6.65,4.59-8.94,7.22-.79,6.81-2.2,14.78-3.41,17.37-1.38,2.92-8,13.89-8.53,16.64-.23,1.24-1.38,5.35-2.64,9.64a17.78,17.78,0,0,0,1.54,2.82c2.47,3.61,4.48,3.63,6.22,2.17,2-4.27,9-18.72,12-23.87,3.27-5.51,6.11-19.17,6.11-19.17a15.19,15.19,0,0,0,0,1.59C224.85,273.45,224.35,265.68,222.08,265.68Z" style="fill:#fff"></path><path d="M289.16,309.84c-1.37-6-4-12.29-5.94-14.7s-1.6-9.75-2.64-16.47c-.18-1.19-.32-2.49-.46-3.86-.56-2.64-2.09-6.36-6.15-5.17-4.27,1.26-5,8.47-5.11,14.31,1,2.68,2.73,7.69,3.46,10.74,1,4.3,1.72,11.54,4.65,16.53,2.11,3.61,6.48,12.27,9.2,17.76,3.34,2.14,6.25,1.11,6.51-5.06C291.35,319.44,290,313.4,289.16,309.84Z" style="fill:#fff"></path></g><path d="M224.45,278.5a12.75,12.75,0,0,1,1.37-8.95" style="fill:#fff;stroke:#263238;stroke-linecap:round;stroke-linejoin:round"></path><path d="M268.18,282.12s1.9-7.75-1.2-12.92" style="fill:#fff;stroke:#263238;stroke-linecap:round;stroke-linejoin:round"></path></g><path d="M246.14,248.54s-8.78,2.93-12.91,2.93-8.72-1.64-12.85,1.63-6.27,9.9-6.95,17.14-2.33,17.1-3.7,20-8,13.89-8.53,16.64-5.57,19.68-6.26,21.23-9.12,1.89-9.12,1.89-.18,4.82.86,7.23l1,2.42a22.1,22.1,0,0,0,9.13-2.76c4.47-2.58,7.75-11.71,9.12-14.64s9.1-19.1,12.38-24.61,6.11-19.17,6.11-19.17-.35,6.54,2.75,10.68,2.93,8.95,2.58,12.05-3.27,4.82-5.16,5.86,1.55,2.58,1.55,2.58-3.45,0-3.45,1.2,2.59,1.9,9,5.86,17.56,3.27,24.62.69,10.16-3.62,10.85-5.17a1.41,1.41,0,0,0-.69-2.06s2.07,0,1.21-2.42-4.31-4-4.65-4.64-2.58-7.58-.17-10.34,5-9.12,5.33-10.67c0,0,3.1,8.26,4.14,12.57S274,306.23,277,311.22s10.16,19.63,11.36,22.21a16,16,0,0,0,5.17,5.86c1.55,1,6,1.89,6,1.89a23.2,23.2,0,0,0,3.79-5.51,11.5,11.5,0,0,0,1.21-3.79s-7.58-1.55-9.3-2.24-4.68-13.78-6.06-19.8-4-12.29-5.94-14.7-1.6-9.75-2.64-16.47-.86-17-3.61-21.69-5.34-7.06-9.65-7.24-7.23,0-12.4,0A30.64,30.64,0,0,1,246.14,248.54Z" style="fill:none;stroke:#263238;stroke-linecap:round;stroke-linejoin:round"></path><path d="M264.13,249.67c-2.82,0-5.41.07-9.21.07a30.64,30.64,0,0,1-8.78-1.2s-8.78,2.93-12.91,2.93-8.72-1.64-12.85,1.63a16.2,16.2,0,0,0-4.29,5.4c3,1.52,10.66,5,23.51,3.47C254,260.26,261.2,253,264.13,249.67Z" style="fill:#fff;stroke:#263238;stroke-linecap:round;stroke-linejoin:round"></path><path d="M249.41,329.64s-.86-3.27,2.24-7.23,10.34-4.13,16.53-2.58a12.26,12.26,0,0,1,9.13,11.36,6.81,6.81,0,0,1-5.34,6.89C269.22,338.77,257,338.25,249.41,329.64Z" style="fill:#fff;stroke:#263238;stroke-linecap:round;stroke-linejoin:round"></path><path d="M215.15,333.09s-3.27-3.79-.52-9.47,10-6.37,14-5.69a14,14,0,0,1,8.95,5.17c2.24,2.76,2.93,7.23,2.93,8.44s.17,3.61-9,5A25.32,25.32,0,0,1,215.15,333.09Z" style="fill:#fff;stroke:#263238;stroke-linecap:round;stroke-linejoin:round"></path><path d="M274,332.05s-1.21-3.61-6.72-7.74-14.29-2.41-16.18.51-5,5.49-6.41,12.21-.31,25.5-.14,31.19,1.55,19.28,0,25.65a42.94,42.94,0,0,1-8.09,15.85c-3.1,4-6.54,5.16-8.09,9.12a40.49,40.49,0,0,1-4.65,8.61c-1.9,2.93-2.93,7.58-.86,7.92a7.16,7.16,0,0,0,3.44-.17,5.67,5.67,0,0,0,3.62-1.89c1.89-1.9,3.78-5.86,4.65-7.58s2.41-8.27,4.47-10.33,11.71-11.37,16.54-18.95c4.22-6.64,7.28-14.38,7.57-22.32.23-6-5.11-16.52-2.41-21.93,1.38-2.75,4.3-1.38,10-9.47S274,332.05,274,332.05Z" style="fill:#fff"></path><g style="clip-path:url(#freepik--clip-path-2--inject-3)"><path d="M255.54,348.88c-3.4-2.84-9.07,3.69-9.07-2.27,0-4.58,1.67-13.52,2.45-17.41a66.09,66.09,0,0,0-3.81,12.15c-1.38,6.72-.69,21.18-.52,26.87s1.55,19.28,0,25.65a42.94,42.94,0,0,1-8.09,15.85c-3.1,4-6.54,5.16-8.09,9.12a40.49,40.49,0,0,1-4.65,8.61c-1.9,2.93-2.93,7.58-.86,7.92a7.16,7.16,0,0,0,3.44-.17,5.67,5.67,0,0,0,3.62-1.89c1.89-1.9,3.78-5.86,4.65-7.58s2.41-8.27,4.47-10.33c1.51-1.51,7.08-6.9,11.85-12.65a100.57,100.57,0,0,0,7.74-19.83c2.83-10.78,2-15.6.56-20.71S259,351.72,255.54,348.88Z" style="fill:#7B2CBF"></path><path d="M255.54,348.88c-3.4-2.84-9.07,3.69-9.07-2.27,0-4.58,1.67-13.52,2.45-17.41a66.09,66.09,0,0,0-3.81,12.15c-1.38,6.72-.69,21.18-.52,26.87s1.55,19.28,0,25.65a42.94,42.94,0,0,1-8.09,15.85c-3.1,4-6.54,5.16-8.09,9.12a40.49,40.49,0,0,1-4.65,8.61c-1.9,2.93-2.93,7.58-.86,7.92a7.16,7.16,0,0,0,3.44-.17,5.67,5.67,0,0,0,3.62-1.89c1.89-1.9,3.78-5.86,4.65-7.58s2.41-8.27,4.47-10.33c1.51-1.51,7.08-6.9,11.85-12.65a100.57,100.57,0,0,0,7.74-19.83c2.83-10.78,2-15.6.56-20.71S259,351.72,255.54,348.88Z" style="fill:#fff;opacity:0.5"></path></g><path d="M274,332.05s-1.21-3.61-6.72-7.74-14.29-2.41-16.18.51-5,5.49-6.41,12.21-.31,25.5-.14,31.19,1.55,19.28,0,25.65a42.94,42.94,0,0,1-8.09,15.85c-3.1,4-6.54,5.16-8.09,9.12a40.49,40.49,0,0,1-4.65,8.61c-1.9,2.93-2.93,7.58-.86,7.92a7.16,7.16,0,0,0,3.44-.17,5.67,5.67,0,0,0,3.62-1.89c1.89-1.9,3.78-5.86,4.65-7.58s2.41-8.27,4.47-10.33,11.71-11.37,16.54-18.95c4.22-6.64,7.28-14.38,7.57-22.32.23-6-5.11-16.52-2.41-21.93,1.38-2.75,4.3-1.38,10-9.47S274,332.05,274,332.05Z" style="fill:none;stroke:#263238;stroke-linecap:round;stroke-linejoin:round"></path><path d="M224.79,435.2s1-.17,1.21-2.07a5.51,5.51,0,0,1,.68-2.58" style="fill:none;stroke:#263238;stroke-linecap:round;stroke-linejoin:round"></path><path d="M226.34,435.2a2.52,2.52,0,0,0,1.38-2.58c-.35-1.72.51-2.07.51-2.07" style="fill:none;stroke:#263238;stroke-linecap:round;stroke-linejoin:round"></path><path d="M228.58,434a1.82,1.82,0,0,0,.86-1.38,7,7,0,0,1,.52-2.24" style="fill:none;stroke:#263238;stroke-linecap:round;stroke-linejoin:round"></path><path d="M231.16,431.76s.17-1.73.17-2.24" style="fill:none;stroke:#263238;stroke-linecap:round;stroke-linejoin:round"></path><path d="M244.46,335.94a98.72,98.72,0,0,0-7.27-11.46c-3.62-4.65-9.13-5.86-18.43-.69s-1,18.25,2.93,22.56S233.06,352,232,355.47c-1.75,5.86-4.64,9.24-3.74,15.51,1.46,10.16,6.85,20,11.32,29.09,3.79,7.75,9.13,15.33,9.64,18.77s-1.38,11.88-1.72,15.16,4.48,4.64,4.48,4.64,2.24,1.9,2.92-.17a34.64,34.64,0,0,0,1.55-9.12c0-2.93.52-5.69-.68-9.65s-3.1-7.57-3.62-10.33-5.85-23.07-4.82-30.48-1.38-21-1.38-24.45S245.84,339.91,244.46,335.94Z" style="fill:#fff"></path><g style="clip-path:url(#freepik--clip-path-3--inject-3)"><path d="M252.17,409.37c-.52-2.75-5.85-23.07-4.82-30.48.59-4.24.05-10.53-.52-15.77-1.76-6.7-2.48-11.72-5.19-13.39-3.68-2.27-7.09,3.41-7.37,2.55s-4.26-3.68-11.35-8.51c-4.48-3-7-8-8.3-11.25.68,5.36,4.66,11.21,7.07,13.83,4,4.3,11.37,5.68,10.33,9.12-1.75,5.86-4.64,9.24-3.74,15.51,1.46,10.16,6.85,20,11.32,29.09,3.79,7.75,9.13,15.33,9.64,18.77s-1.38,11.88-1.72,15.16,4.48,4.64,4.48,4.64,2.24,1.9,2.92-.17a34.64,34.64,0,0,0,1.55-9.12c0-2.93.52-5.69-.68-9.65S252.69,412.13,252.17,409.37Z" style="fill:#7B2CBF"></path><path d="M252.17,409.37c-.52-2.75-5.85-23.07-4.82-30.48.59-4.24.05-10.53-.52-15.77-1.76-6.7-2.48-11.72-5.19-13.39-3.68-2.27-7.09,3.41-7.37,2.55s-4.26-3.68-11.35-8.51c-4.48-3-7-8-8.3-11.25.68,5.36,4.66,11.21,7.07,13.83,4,4.3,11.37,5.68,10.33,9.12-1.75,5.86-4.64,9.24-3.74,15.51,1.46,10.16,6.85,20,11.32,29.09,3.79,7.75,9.13,15.33,9.64,18.77s-1.38,11.88-1.72,15.16,4.48,4.64,4.48,4.64,2.24,1.9,2.92-.17a34.64,34.64,0,0,0,1.55-9.12c0-2.93.52-5.69-.68-9.65S252.69,412.13,252.17,409.37Z" style="fill:#fff;opacity:0.5"></path></g><path d="M244.46,335.94a98.72,98.72,0,0,0-7.27-11.46c-3.62-4.65-9.13-5.86-18.43-.69s-1,18.25,2.93,22.56S233.06,352,232,355.47c-1.75,5.86-4.64,9.24-3.74,15.51,1.46,10.16,6.85,20,11.32,29.09,3.79,7.75,9.13,15.33,9.64,18.77s-1.38,11.88-1.72,15.16,4.48,4.64,4.48,4.64,2.24,1.9,2.92-.17a34.64,34.64,0,0,0,1.55-9.12c0-2.93.52-5.69-.68-9.65s-3.1-7.57-3.62-10.33-5.85-23.07-4.82-30.48-1.38-21-1.38-24.45S245.84,339.91,244.46,335.94Z" style="fill:none;stroke:#263238;stroke-linecap:round;stroke-linejoin:round"></path><path d="M252,438.64a5.53,5.53,0,0,1,.69-4" style="fill:none;stroke:#263238;stroke-linecap:round;stroke-linejoin:round"></path><path d="M250.1,437.61a3.51,3.51,0,0,1,.52-3.27" style="fill:none;stroke:#263238;stroke-linecap:round;stroke-linejoin:round"></path><path d="M248.38,436.23a11.11,11.11,0,0,1,.86-2.92" style="fill:none;stroke:#263238;stroke-linecap:round;stroke-linejoin:round"></path><line x1="247.52" y1="434" x2="248.73" y2="431.41" style="fill:none;stroke:#263238;stroke-linecap:round;stroke-linejoin:round"></line><path d="M253.8,253.47s.34-6.82,2.39-10.74a49.29,49.29,0,0,1,4.19-6.53,20.25,20.25,0,0,0,5.35.56,2.93,2.93,0,0,0,2.39-3.92c-.51-1.54,0-9.55,0-9.55s1.88-1.88,2.22-2.39-1.88-.51-3.58-1.7-1.71-3.07-3.24-6a11.13,11.13,0,0,0-3.07-3.92s-5.8.34-6.65,5.11-.34,9-2.05,10.74-2.9,1-2.9,1-2-2.22-4.43-1.2-3.4,3-1,5.61a10,10,0,0,0,2.33,2c0,3.63.16,9.89-2,13.72a16.19,16.19,0,0,1-5.8,6" style="fill:#fff"></path><g style="clip-path:url(#freepik--clip-path-4--inject-3)"><path d="M267.66,235.68a2.67,2.67,0,0,1-.73.64l-.87.35a3.18,3.18,0,0,1-.33.09,20.25,20.25,0,0,1-5.35-.56,53.17,53.17,0,0,0-3.6,5.44,39.77,39.77,0,0,1-7.22,5.59c-3.77,2.15-5.58,3.21-7.89,2a16.82,16.82,0,0,0,2.07-2.88c2.15-3.83,2-10.09,2-13.72a10,10,0,0,1-2.33-2C241,228,242,226,244.42,225s4.43,1.2,4.43,1.2a1.52,1.52,0,0,0,.63.12,6.26,6.26,0,0,0,.24,1.46c1,3.66,5.49,4.82,10.48,6.82A15.74,15.74,0,0,0,267.66,235.68Zm-9.46-22.87a10.72,10.72,0,0,1,4.88-.34,10.29,10.29,0,0,0-2.63-3.16s-5.8.34-6.65,5.11c-.16.88-.27,1.74-.36,2.58A7.76,7.76,0,0,1,258.2,212.81Z" style="fill:#7B2CBF"></path><path d="M267.66,235.68a2.67,2.67,0,0,1-.73.64l-.87.35a3.18,3.18,0,0,1-.33.09,20.25,20.25,0,0,1-5.35-.56,53.17,53.17,0,0,0-3.6,5.44,39.77,39.77,0,0,1-7.22,5.59c-3.77,2.15-5.58,3.21-7.89,2a16.82,16.82,0,0,0,2.07-2.88c2.15-3.83,2-10.09,2-13.72a10,10,0,0,1-2.33-2C241,228,242,226,244.42,225s4.43,1.2,4.43,1.2a1.52,1.52,0,0,0,.63.12,6.26,6.26,0,0,0,.24,1.46c1,3.66,5.49,4.82,10.48,6.82A15.74,15.74,0,0,0,267.66,235.68Zm-9.46-22.87a10.72,10.72,0,0,1,4.88-.34,10.29,10.29,0,0,0-2.63-3.16s-5.8.34-6.65,5.11c-.16.88-.27,1.74-.36,2.58A7.76,7.76,0,0,1,258.2,212.81Z" style="fill:#fff;opacity:0.5"></path><path d="M261.47,216.47l1.37,2.56a3.17,3.17,0,0,1-3.41,1.36" style="fill:none;stroke:#263238;stroke-linecap:round;stroke-linejoin:round"></path><path d="M257.72,216.13a2.49,2.49,0,0,1,3.07-2.22" style="fill:none;stroke:#263238;stroke-linecap:round;stroke-linejoin:round"></path><path d="M245.73,232.59s2,1,3.16-.49c0,0,3.49,2.32,6.15,2.66" style="fill:none;stroke:#263238;stroke-linecap:round;stroke-linejoin:round"></path></g><path d="M253.8,253.47s.34-6.82,2.39-10.74a49.29,49.29,0,0,1,4.19-6.53,20.25,20.25,0,0,0,5.35.56,2.93,2.93,0,0,0,2.39-3.92c-.51-1.54,0-9.55,0-9.55s1.88-1.88,2.22-2.39-1.88-.51-3.58-1.7-1.71-3.07-3.24-6a11.13,11.13,0,0,0-3.07-3.92s-5.8.34-6.65,5.11-.34,9-2.05,10.74-2.9,1-2.9,1-2-2.22-4.43-1.2-3.4,3-1,5.61a10,10,0,0,0,2.33,2c0,3.63.16,9.89-2,13.72a16.19,16.19,0,0,1-5.8,6" style="fill:none;stroke:#263238;stroke-linecap:round;stroke-linejoin:round"></path></g></svg>